<?xml version="1.0" encoding="UTF-8"?>
<svg id="Capa_1" data-name="Capa 1" xmlns="http://www.w3.org/2000/svg" viewBox="0 0 7.13 7">
  <defs>
    <style>
      .cls-1 {
        fill: #fff;
        stroke-width: 0px;
      }
    </style>
  </defs>
  <path class="cls-1" d="m6.73,3.9c.04.11,0,.16-.11.19-.21.04-.42.08-.62.14-.07.02-.14.07-.17.14-.1.18-.24.36-.24.54s.16.35.25.52q.14.27-.07.49c-.07.08-.15.15-.21.24-.07.1-.14.1-.24.03-.04-.03-.1-.05-.14-.08-.32-.28-.67-.28-1.03-.09-.06.03-.13.09-.15.15-.09.22-.16.46-.23.69-.03.1-.09.14-.2.14-.15,0-.31,0-.46,0-.1,0-.15-.03-.18-.14-.07-.23-.15-.45-.22-.68-.04-.13-.12-.19-.22-.26-.21-.14-.4-.14-.61,0-.18.12-.38.2-.57.31-.07.04-.12.04-.17-.03-.12-.14-.23-.28-.36-.4-.07-.07-.06-.12-.01-.2.13-.21.24-.42.36-.63.13-.21.02-.41-.01-.61,0-.03-.08-.06-.13-.07-.28-.08-.57-.16-.85-.23-.1-.02-.15-.07-.14-.18,0-.14,0-.28,0-.43,0-.1.03-.15.13-.18.26-.08.51-.17.77-.26.11-.03.15-.1.2-.2.12-.25.12-.48-.06-.71-.07-.1-.11-.23-.19-.33-.09-.13-.07-.23.05-.32.05-.04.09-.09.14-.14.17-.18.37-.21.59-.08.03.01.06.03.08.05.28.22.56.23.85.02.07-.05.14-.12.17-.2.08-.22.13-.46.21-.68.02-.05.08-.09.12-.14.02.06.07.11.07.16,0,.68,0,1.36,0,2.04,0,.12-.04.16-.14.2-.46.17-.71.58-.69,1.08.02.42.35.8.79.91.52.14,1.06-.16,1.25-.69.02-.05.08-.12.13-.12.74,0,1.48,0,2.22,0,.01,0,.03,0,.05.01h0Z"/>
  <path class="cls-1" d="m7.13,3.46h-.49c-.01-.05-.03-.11-.05-.16-.43-1.48-1.39-2.41-2.88-2.79-.1-.03-.14-.07-.14-.17,0-.11,0-.23,0-.35,1.69.21,3.29,1.68,3.55,3.46h0Z"/>
  <path class="cls-1" d="m3.58,1.01c1.2.21,2.31,1.28,2.53,2.45-.15,0-.29,0-.44,0-.04,0-.09-.07-.11-.13-.27-.74-.75-1.29-1.46-1.63-.13-.07-.28-.1-.41-.16-.04-.02-.1-.07-.1-.11-.01-.13,0-.26,0-.41h0Z"/>
  <path class="cls-1" d="m5.14,3.46c-.15,0-.29,0-.44,0-.05,0-.11-.04-.13-.08-.21-.38-.5-.66-.89-.85-.05-.02-.09-.1-.1-.15-.01-.13,0-.25,0-.38.57.05,1.41.83,1.56,1.47h0Z"/>
  <path class="cls-1" d="m2.85,3.7c0-.29.23-.53.52-.53.29,0,.54.24.54.53,0,.28-.24.52-.51.52-.3,0-.54-.22-.54-.52Z"/>
</svg>